<svg xmlns="http://www.w3.org/2000/svg" viewBox="0 0 238.65 178.41"><defs><style>.cls-1{fill:#2f55d4;}.cls-2{fill:#0b3442;}</style></defs><g id="Layer_2" data-name="Layer 2"><g id="Layer_1-2" data-name="Layer 1"><path class="cls-1" d="M143.11,44.73c-.29-.3-.59-.58-.9-.86a5.57,5.57,0,0,0-.41-.45L113.09,14.71a5.87,5.87,0,1,0-8.3,8.3l13.4,13.41a29.23,29.23,0,0,0-12,4.57L92.3,27.14h0L73.79,8.63a5.87,5.87,0,0,0-8.31,8.3L84,35.45,94.2,45.65l3.64,3.64a29.15,29.15,0,0,0-4.58,12L79.87,47.93a5.88,5.88,0,0,0-8.31,8.31L100.28,85a2,2,0,0,0,.26.24c.33.37.67.73,1,1.08a29.37,29.37,0,1,0,41.54-41.54ZM110.17,64.1c-4,0-4-6.22,0-6.22S114.17,64.1,110.17,64.1Zm7,21.86c-5.17,0-5.16-8,0-8S122.3,86,117.15,86Zm11-34.76c6.46,0,6.45,10,0,10S121.68,51.2,128.12,51.2ZM134.18,85c-8,0-7.94-12.34,0-12.34S142.11,85,134.18,85Zm7.68-20c-2.58,0-2.57-4,0-4S144.44,65.05,141.86,65.05Z" transform="translate(-0.45)"/><path class="cls-1" d="M96.77,14.57a2.23,2.23,0,1,0-3.15,0A2.24,2.24,0,0,0,96.77,14.57Z" transform="translate(-0.45)"/><path class="cls-1" d="M70.72,35.33a4.08,4.08,0,1,0,0,5.77A4.07,4.07,0,0,0,70.72,35.33Z" transform="translate(-0.45)"/><path class="cls-1" d="M53.85.83a2.83,2.83,0,1,0,4,0A2.82,2.82,0,0,0,53.85.83Z" transform="translate(-0.45)"/><path class="cls-2" d="M5.68,148.77a2.79,2.79,0,0,1-.63-2V105.55a2.79,2.79,0,0,1,.63-2,2.79,2.79,0,0,1,2-.63H20.86q8.12,0,11.9,3.12a10.59,10.59,0,0,1,3.78,8.64,10,10,0,0,1-2,6.08,11.73,11.73,0,0,1-5.15,4l.06.26a11.25,11.25,0,0,1,9,10.9q0,6.51-4.15,10T21.79,149.4H7.71A2.79,2.79,0,0,1,5.68,148.77Zm14.19-27.34a6.78,6.78,0,0,0,4.55-1.4,4.53,4.53,0,0,0,1.63-3.59q0-4.91-6.05-4.91H15.28v9.9Zm1.92,19.27a6.65,6.65,0,0,0,4.52-1.4,5,5,0,0,0,1.6-4,4.42,4.42,0,0,0-1.86-3.88,9.21,9.21,0,0,0-5.32-1.3H15.28V140.7Z" transform="translate(-0.45)"/><path class="cls-2" d="M43.32,107.81v-4.72q0-2.46,4.92-2.46c3.28,0,4.91.82,4.91,2.46v4.72c0,1.68-1.63,2.52-4.91,2.52S43.32,109.49,43.32,107.81Zm0,39.6V116.64q0-2.11,4-2.12h1.86c2.66,0,4,.71,4,2.12v30.77c0,1.41-1.32,2.12-4,2.12H47.31Q43.32,149.53,43.32,147.41Z" transform="translate(-0.45)"/><path class="cls-2" d="M62.12,139.17V122.42H61.06a1.63,1.63,0,0,1-1.53-.79,5.27,5.27,0,0,1-.46-2.53V118a5.2,5.2,0,0,1,.46-2.52,1.64,1.64,0,0,1,1.53-.8h1.06l.87-6.31c.22-1.42,1.42-2.13,3.59-2.13h2.06c2.21,0,3.32.71,3.32,2.13v6.31h3.25a1.64,1.64,0,0,1,1.53.8,5.18,5.18,0,0,1,.47,2.52v1.13a5.25,5.25,0,0,1-.47,2.53,1.63,1.63,0,0,1-1.53.79H72V139.3a3.41,3.41,0,0,0,.56,2.19,2.27,2.27,0,0,0,1.83.67,4.22,4.22,0,0,0,.9-.14,4.62,4.62,0,0,1,.89-.13c.4,0,.76.33,1.07,1a10.62,10.62,0,0,1,.73,2.19,8.86,8.86,0,0,1,.26,1.6q0,3.25-6.37,3.25Q62.13,149.93,62.12,139.17Z" transform="translate(-0.45)"/><path class="cls-2" d="M86.18,148.07V104.88a1.69,1.69,0,0,1,2-2H109.1a1.12,1.12,0,0,1,1,.46,2.93,2.93,0,0,1,.3,1.53v1.06a2.93,2.93,0,0,1-.3,1.53,1.13,1.13,0,0,1-1,.47H92v15.15H107.9a1.12,1.12,0,0,1,1,.46,2.93,2.93,0,0,1,.3,1.53v1.06a2.93,2.93,0,0,1-.3,1.53,1.13,1.13,0,0,1-1,.47H92v19.93c0,1-.88,1.46-2.65,1.46h-.54C87.06,149.53,86.18,149.05,86.18,148.07Z" transform="translate(-0.45)"/><path class="cls-2" d="M120.79,145.48q-4-4.32-4-13.22t3.92-13.42q3.92-4.59,11.56-4.59,6.78,0,10.23,4.42T146,131.59a3.2,3.2,0,0,1-.8,1.66c-.53.71-1,1.07-1.4,1.07h-21c.26,3.67,1.21,6.38,2.85,8.1S129.74,145,133,145a15.05,15.05,0,0,0,4.82-.69,24.62,24.62,0,0,0,3.35-1.4,7.84,7.84,0,0,1,1.53-.7c.44,0,.94.45,1.49,1.33a4.4,4.4,0,0,1,.84,2c0,.53-.56,1.14-1.67,1.82A15.51,15.51,0,0,1,139,149.1a23.69,23.69,0,0,1-5.88.7Q124.78,149.8,120.79,145.48Zm19.27-15.95q0-10.5-8-10.5-8.57,0-9.3,10.5Z" transform="translate(-0.45)"/><path class="cls-2" d="M158.7,147.77q-2.62-2-2.63-7.14v-21.2h-3.32a1.13,1.13,0,0,1-1-.46,2.62,2.62,0,0,1-.34-1.53v-.8a2.62,2.62,0,0,1,.34-1.53,1.13,1.13,0,0,1,1-.46h3.32l.8-7c.13-1,.84-1.46,2.13-1.46h.66c1.33,0,2,.49,2,1.46v7h5.58a1.14,1.14,0,0,1,1,.46,2.93,2.93,0,0,1,.3,1.53v.8a2.93,2.93,0,0,1-.3,1.53,1.14,1.14,0,0,1-1,.46h-5.58V140.1c0,1.86.32,3.14,1,3.85a3.36,3.36,0,0,0,2.62,1.06,8.18,8.18,0,0,0,1.9-.16,4.21,4.21,0,0,1,1-.17c.4,0,.73.41,1,1.23a6.92,6.92,0,0,1,.4,1.89q0,2-4.85,2A9.48,9.48,0,0,1,158.7,147.77Z" transform="translate(-0.45)"/><path class="cls-2" d="M179.2,145.55q-4.06-4.26-4.06-13.69t4.52-13.56a16.21,16.21,0,0,1,11.23-4,23.73,23.73,0,0,1,6.91.93q3.06.93,3.06,2.13a4.88,4.88,0,0,1-.77,2.22c-.51.91-1,1.37-1.36,1.37a.66.66,0,0,1-.3-.1,1.33,1.33,0,0,0-.43-.17,17.75,17.75,0,0,0-7.24-1.6q-9.64,0-9.64,12.7,0,7,2.36,10.16t7.94,3.12a16.57,16.57,0,0,0,7.51-1.72l.73-.27c.44,0,.93.43,1.46,1.3a4.28,4.28,0,0,1,.8,2.09c0,.53-.48,1.05-1.43,1.56a15.34,15.34,0,0,1-3.82,1.3,24.1,24.1,0,0,1-5.18.53Q183.26,149.8,179.2,145.55Z" transform="translate(-0.45)"/><path class="cls-2" d="M210,148.07V100.9c0-1,.88-1.47,2.65-1.47H213c1.77,0,2.66.49,2.66,1.47v17.94a17.08,17.08,0,0,1,4.62-3.29,12.61,12.61,0,0,1,12.92,1.06c2.12,1.57,3.19,4.37,3.19,8.4v23.06c0,1-.89,1.46-2.66,1.46h-.27c-1.77,0-2.65-.48-2.65-1.46V125.55a6.38,6.38,0,0,0-1.73-4.72A6.86,6.86,0,0,0,224,119.1a8.19,8.19,0,0,0-4,1,13.87,13.87,0,0,0-3.09,2.26,7.61,7.61,0,0,0-1.23,1.36v24.32c0,1-.89,1.46-2.66,1.46h-.27C210.91,149.53,210,149.05,210,148.07Z" transform="translate(-0.45)"/><path class="cls-2" d="M.45,173.46a1.17,1.17,0,0,1,.06-.31l5.15-14.57c.08-.24.37-.36.86-.36h.63c.53,0,.81.12.87.36l5.15,14.59a.83.83,0,0,1,.06.29c0,.25-.31.38-.93.38h-.18c-.5,0-.79-.12-.86-.36L10,169.85H3.6l-1.24,3.63q-.1.36-.87.36H1.38C.76,173.84.45,173.71.45,173.46Zm8.94-5.3-2.28-6.61a12.06,12.06,0,0,1-.26-1.29h0a9.17,9.17,0,0,1-.33,1.29L4.2,168.16Z" transform="translate(-0.45)"/><path class="cls-2" d="M16.13,173.25a2.87,2.87,0,0,1-.86-2.38V157.6c0-.32.29-.49.87-.49h.09c.58,0,.87.17.87.49v13.09a2,2,0,0,0,.31,1.29,1.11,1.11,0,0,0,.86.35,3.13,3.13,0,0,0,.62-.05,1.17,1.17,0,0,1,.31-.06c.13,0,.24.14.33.41a2.5,2.5,0,0,1,.13.63c0,.45-.53.67-1.59.67A3.06,3.06,0,0,1,16.13,173.25Z" transform="translate(-0.45)"/><path class="cls-2" d="M23.56,173.48,20.7,163a1.55,1.55,0,0,1-.11-.44c0-.26.33-.38,1-.38s.81.12.87.35l1.82,7.1c0,.14.09.36.15.68s.1.56.13.72l.22,1.15h.08c.24-1.31.4-2.17.5-2.57l1.81-7.05c0-.26.34-.38.84-.38h.15c.51,0,.79.12.85.38l1.82,7.05c.16.65.28,1.22.36,1.7s.14.78.16.92h0l.15-.93c.16-.85.27-1.39.33-1.65l1.82-7.12c.06-.23.35-.35.89-.35s.87.12.87.38a1.38,1.38,0,0,1-.07.31l-2.91,10.64c-.06.24-.34.36-.87.36H31c-.5,0-.79-.12-.84-.36l-1.74-7a10,10,0,0,1-.22-1.17l-.08-.58h0l-.08.53a10,10,0,0,1-.22,1.2l-1.78,7q-.09.36-.87.36h-.65Q23.65,173.84,23.56,173.48Z" transform="translate(-0.45)"/><path class="cls-2" d="M38.23,173.09a3.05,3.05,0,0,1-1-2.49,3.26,3.26,0,0,1,1-2.63,5.16,5.16,0,0,1,2.52-1.13,24.34,24.34,0,0,1,3.65-.28v-1a1.76,1.76,0,0,0-.56-1.34,2.65,2.65,0,0,0-1.83-.52,5.62,5.62,0,0,0-1.67.23,9.22,9.22,0,0,0-1.19.47,4.43,4.43,0,0,1-.52.23c-.15,0-.31-.15-.49-.44a1.52,1.52,0,0,1-.27-.67c0-.19.19-.4.57-.62a6.32,6.32,0,0,1,1.53-.57,8.65,8.65,0,0,1,2-.23,4.85,4.85,0,0,1,3.14.92,3.1,3.1,0,0,1,1.13,2.56v5a12.41,12.41,0,0,0,.13,2.1,6.78,6.78,0,0,1,.13.7c0,.17-.13.3-.41.39a2.72,2.72,0,0,1-.76.12.47.47,0,0,1-.44-.35,3.53,3.53,0,0,1-.22-.72c-.05-.25-.08-.41-.1-.49a4.68,4.68,0,0,1-3.64,1.67A4.11,4.11,0,0,1,38.23,173.09Zm4.62-1.18a7.75,7.75,0,0,0,1.57-1.13v-2.62c-1.09,0-2,.06-2.66.13a4.11,4.11,0,0,0-1.81.62,1.77,1.77,0,0,0-.78,1.58,1.83,1.83,0,0,0,.46,1.35,1.89,1.89,0,0,0,1.38.47A3.93,3.93,0,0,0,42.85,171.91Z" transform="translate(-0.45)"/><path class="cls-2" d="M58,162.53a1.38,1.38,0,0,1-.07.31l-5.58,15.1c-.11.31-.45.47-1,.47H51q-.72,0-.72-.36a1.53,1.53,0,0,1,.11-.37l1.82-4.53-3.79-10.34a.85.85,0,0,1-.07-.28c0-.26.31-.38.93-.38h.18c.5,0,.79.12.87.35l2.21,6c.23.65.46,1.39.69,2.24h0c0-.11.05-.21.08-.3l.09-.28.54-1.66,2.17-6c.08-.23.37-.35.89-.35h.07C57.72,162.15,58,162.27,58,162.53Z" transform="translate(-0.45)"/><path class="cls-2" d="M60.9,173.76a4.17,4.17,0,0,1-1.25-.56c-.32-.23-.47-.43-.47-.6a1.52,1.52,0,0,1,.27-.67c.18-.29.34-.44.49-.44a2.29,2.29,0,0,1,.41.24,4.38,4.38,0,0,0,.92.45,3.69,3.69,0,0,0,1.23.2q2.13,0,2.13-1.8a1.57,1.57,0,0,0-.48-1.2,4.49,4.49,0,0,0-1.69-.8,4.9,4.9,0,0,1-2.37-1.27,3.1,3.1,0,0,1-.65-2.06,3,3,0,0,1,.47-1.66,3.08,3.08,0,0,1,1.28-1.14A4.09,4.09,0,0,1,63,162a6.17,6.17,0,0,1,2,.29c.58.19.88.41.88.66a1.81,1.81,0,0,1-.25.75q-.25.45-.45.45a5.91,5.91,0,0,1-.57-.3,3,3,0,0,0-1.4-.28,2.41,2.41,0,0,0-1.38.38,1.17,1.17,0,0,0-.55,1,1.77,1.77,0,0,0,.39,1.2,2.87,2.87,0,0,0,1.3.73,10.71,10.71,0,0,1,2.11.88,2.6,2.6,0,0,1,1,1.06,3.71,3.71,0,0,1,.31,1.65A3.19,3.19,0,0,1,66,172.3a3.56,3.56,0,0,1-1.39,1.24,4.17,4.17,0,0,1-1.94.45A6,6,0,0,1,60.9,173.76Z" transform="translate(-0.45)"/><path class="cls-1" d="M74.7,173.35V158.93a.74.74,0,0,1,.15-.51.7.7,0,0,1,.5-.15h6.83a.37.37,0,0,1,.34.15,1,1,0,0,1,.1.51v.36a1,1,0,0,1-.1.51.37.37,0,0,1-.34.15H76.61V165h5.18a.37.37,0,0,1,.34.16.93.93,0,0,1,.1.51V166a.93.93,0,0,1-.1.51.37.37,0,0,1-.34.16H76.61v6.65c0,.33-.29.49-.87.49h-.18C75,173.84,74.7,173.68,74.7,173.35Z" transform="translate(-0.45)"/><path class="cls-1" d="M85.59,173.09a3.05,3.05,0,0,1-1-2.49,3.29,3.29,0,0,1,1-2.63,5.2,5.2,0,0,1,2.53-1.13,24.34,24.34,0,0,1,3.65-.28v-1a1.73,1.73,0,0,0-.57-1.34,2.6,2.6,0,0,0-1.82-.52,5.57,5.57,0,0,0-1.67.23,8.67,8.67,0,0,0-1.19.47,4.13,4.13,0,0,1-.53.23c-.14,0-.3-.15-.48-.44a1.45,1.45,0,0,1-.28-.67c0-.19.2-.4.58-.62a6,6,0,0,1,1.53-.57,8.59,8.59,0,0,1,2-.23,4.85,4.85,0,0,1,3.14.92,3.13,3.13,0,0,1,1.13,2.56v5a11.42,11.42,0,0,0,.13,2.1,6.78,6.78,0,0,1,.13.7c0,.17-.14.3-.41.39a2.77,2.77,0,0,1-.76.12.49.49,0,0,1-.45-.35,4.27,4.27,0,0,1-.21-.72c0-.25-.09-.41-.1-.49a4.68,4.68,0,0,1-3.65,1.67A4.1,4.1,0,0,1,85.59,173.09Zm4.61-1.18a7.53,7.53,0,0,0,1.58-1.13v-2.62c-1.09,0-2,.06-2.66.13a4.11,4.11,0,0,0-1.81.62,1.77,1.77,0,0,0-.78,1.58,1.83,1.83,0,0,0,.46,1.35,1.87,1.87,0,0,0,1.38.47A3.86,3.86,0,0,0,90.2,171.91Z" transform="translate(-0.45)"/><path class="cls-1" d="M97.82,173.76a4.13,4.13,0,0,1-1.26-.56c-.31-.23-.46-.43-.46-.6a1.52,1.52,0,0,1,.27-.67c.18-.29.34-.44.49-.44a2.29,2.29,0,0,1,.41.24,4.15,4.15,0,0,0,.92.45,3.69,3.69,0,0,0,1.23.2c1.41,0,2.12-.6,2.12-1.8a1.6,1.6,0,0,0-.47-1.2,4.55,4.55,0,0,0-1.7-.8A4.91,4.91,0,0,1,97,167.31a3.42,3.42,0,0,1-.19-3.72,3.15,3.15,0,0,1,1.28-1.14A4.17,4.17,0,0,1,100,162a6.17,6.17,0,0,1,2,.29q.87.28.87.66a1.76,1.76,0,0,1-.24.75q-.26.45-.45.45a5.91,5.91,0,0,1-.57-.3,3,3,0,0,0-1.4-.28,2.39,2.39,0,0,0-1.38.38,1.18,1.18,0,0,0-.56,1,1.77,1.77,0,0,0,.39,1.2,2.91,2.91,0,0,0,1.31.73,10.71,10.71,0,0,1,2.11.88,2.57,2.57,0,0,1,1,1.06,3.7,3.7,0,0,1,.32,1.65,3.19,3.19,0,0,1-.51,1.77,3.56,3.56,0,0,1-1.39,1.24,4.2,4.2,0,0,1-1.94.45A6,6,0,0,1,97.82,173.76Z" transform="translate(-0.45)"/><path class="cls-1" d="M107.48,173.25a2.87,2.87,0,0,1-.86-2.38v-7.08h-1.08a.37.37,0,0,1-.33-.15,1,1,0,0,1-.11-.51v-.27a.92.92,0,0,1,.11-.51.38.38,0,0,1,.33-.16h1.08l.26-2.33c.05-.32.28-.48.7-.48h.21q.66,0,.66.48v2.33h1.82a.39.39,0,0,1,.34.16,1.05,1.05,0,0,1,.09.51v.27a1.11,1.11,0,0,1-.09.51.38.38,0,0,1-.34.15h-1.82v6.9a2,2,0,0,0,.31,1.29,1.11,1.11,0,0,0,.86.35,3.13,3.13,0,0,0,.62-.05,1.17,1.17,0,0,1,.31-.06c.13,0,.24.14.33.41a2.5,2.5,0,0,1,.13.63c0,.45-.53.67-1.59.67A3.06,3.06,0,0,1,107.48,173.25Z" transform="translate(-0.45)"/><path class="cls-1" d="M112.83,173.35v-1.46c0-.33.29-.49.87-.49h.37c.58,0,.87.16.87.49v1.46c0,.33-.29.49-.87.49h-.37C113.12,173.84,112.83,173.68,112.83,173.35Z" transform="translate(-0.45)"/><path class="cls-2" d="M121.49,173.46a.93.93,0,0,1,.07-.31l5.14-14.57q.14-.36.87-.36h.63c.52,0,.81.12.86.36l5.15,14.59a.83.83,0,0,1,.06.29c0,.25-.31.38-.93.38h-.17q-.76,0-.87-.36L131,169.85h-6.38l-1.24,3.63q-.11.36-.87.36h-.11C121.8,173.84,121.49,173.71,121.49,173.46Zm8.94-5.3-2.28-6.61a12.06,12.06,0,0,1-.26-1.29h0a9.17,9.17,0,0,1-.33,1.29l-2.27,6.61Z" transform="translate(-0.45)"/><path class="cls-2" d="M137.17,173.25a2.87,2.87,0,0,1-.86-2.38V157.6c0-.32.29-.49.87-.49h.09c.58,0,.87.17.87.49v13.09a2,2,0,0,0,.31,1.29,1.11,1.11,0,0,0,.86.35,3.13,3.13,0,0,0,.62-.05,1.24,1.24,0,0,1,.31-.06c.13,0,.24.14.33.41a2.5,2.5,0,0,1,.13.63c0,.45-.53.67-1.59.67A3.06,3.06,0,0,1,137.17,173.25Z" transform="translate(-0.45)"/><path class="cls-2" d="M144.61,173.48,141.74,163a2,2,0,0,1-.11-.44c0-.26.33-.38,1-.38s.81.12.87.35l1.82,7.1a5.37,5.37,0,0,1,.15.68c.06.32.1.56.13.72l.22,1.15h.09c.23-1.31.39-2.17.5-2.57l1.8-7.05c.06-.26.34-.38.84-.38h.16c.5,0,.79.12.84.38l1.83,7.05c.16.65.27,1.22.35,1.7s.14.78.17.92h0l.15-.93c.16-.85.27-1.39.33-1.65l1.82-7.12c.06-.23.36-.35.89-.35s.87.12.87.38a1,1,0,0,1-.07.31l-2.9,10.64q-.09.36-.87.36H152c-.51,0-.79-.12-.85-.36l-1.74-7a10.73,10.73,0,0,1-.21-1.17l-.09-.58h0l-.09.53a10,10,0,0,1-.22,1.2l-1.78,7c-.06.24-.34.36-.87.36h-.65C145,173.84,144.66,173.72,144.61,173.48Z" transform="translate(-0.45)"/><path class="cls-2" d="M159.28,173.09a3.05,3.05,0,0,1-1-2.49,3.26,3.26,0,0,1,1-2.63,5.16,5.16,0,0,1,2.53-1.13,24.08,24.08,0,0,1,3.64-.28v-1a1.76,1.76,0,0,0-.56-1.34,2.64,2.64,0,0,0-1.82-.52,5.64,5.64,0,0,0-1.68.23,9.85,9.85,0,0,0-1.19.47,4.43,4.43,0,0,1-.52.23c-.15,0-.31-.15-.49-.44a1.52,1.52,0,0,1-.27-.67c0-.19.19-.4.57-.62a6.25,6.25,0,0,1,1.54-.57,8.5,8.5,0,0,1,2-.23,4.88,4.88,0,0,1,3.15.92,3.13,3.13,0,0,1,1.13,2.56v5a11.42,11.42,0,0,0,.13,2.1c.08.42.13.65.13.7s-.14.3-.42.39a2.66,2.66,0,0,1-.76.12.47.47,0,0,1-.44-.35,3.53,3.53,0,0,1-.22-.72c-.05-.25-.08-.41-.1-.49a4.66,4.66,0,0,1-3.64,1.67A4.08,4.08,0,0,1,159.28,173.09Zm4.61-1.18a7.48,7.48,0,0,0,1.57-1.13v-2.62c-1.08,0-2,.06-2.66.13a4.15,4.15,0,0,0-1.81.62,1.77,1.77,0,0,0-.78,1.58,1.83,1.83,0,0,0,.47,1.35,1.86,1.86,0,0,0,1.37.47A3.9,3.9,0,0,0,163.89,171.91Z" transform="translate(-0.45)"/><path class="cls-2" d="M179.05,162.53a1,1,0,0,1-.07.31l-5.57,15.1c-.12.31-.46.47-1,.47h-.33q-.72,0-.72-.36a1.53,1.53,0,0,1,.11-.37l1.83-4.53-3.8-10.34a.85.85,0,0,1-.07-.28c0-.26.31-.38.94-.38h.17c.51,0,.79.12.87.35l2.21,6c.23.65.46,1.39.7,2.24h0l.09-.3c0-.1,0-.19.08-.28l.55-1.66,2.17-6c.07-.23.36-.35.89-.35h.06C178.76,162.15,179.05,162.27,179.05,162.53Z" transform="translate(-0.45)"/><path class="cls-2" d="M182,173.76a4.13,4.13,0,0,1-1.26-.56c-.31-.23-.47-.43-.47-.6a1.52,1.52,0,0,1,.27-.67c.18-.29.34-.44.49-.44a2,2,0,0,1,.41.24,4.48,4.48,0,0,0,.93.45,3.59,3.59,0,0,0,1.22.2q2.13,0,2.13-1.8a1.57,1.57,0,0,0-.48-1.2,4.49,4.49,0,0,0-1.69-.8,5,5,0,0,1-2.37-1.27,3.1,3.1,0,0,1-.65-2.06,3,3,0,0,1,.47-1.66,3.15,3.15,0,0,1,1.28-1.14,4.09,4.09,0,0,1,1.85-.41,6.17,6.17,0,0,1,2,.29c.59.19.88.41.88.66a1.67,1.67,0,0,1-.25.75q-.25.45-.45.45a5.91,5.91,0,0,1-.57-.3,3,3,0,0,0-1.4-.28,2.41,2.41,0,0,0-1.38.38,1.17,1.17,0,0,0-.55,1,1.77,1.77,0,0,0,.39,1.2,2.87,2.87,0,0,0,1.3.73,10.85,10.85,0,0,1,2.12.88,2.64,2.64,0,0,1,1,1.06,3.71,3.71,0,0,1,.31,1.65,3.19,3.19,0,0,1-.51,1.77,3.56,3.56,0,0,1-1.39,1.24,4.17,4.17,0,0,1-1.94.45A5.87,5.87,0,0,1,182,173.76Z" transform="translate(-0.45)"/><path class="cls-1" d="M195.74,173.35V158.93a.74.74,0,0,1,.15-.51.7.7,0,0,1,.5-.15h6.84a.35.35,0,0,1,.33.15,1,1,0,0,1,.1.51v.36a1,1,0,0,1-.1.51.35.35,0,0,1-.33.15h-5.58V165h5.19a.34.34,0,0,1,.33.16.93.93,0,0,1,.1.51V166a.93.93,0,0,1-.1.51.34.34,0,0,1-.33.16h-5.19v6.65c0,.33-.29.49-.87.49h-.17C196,173.84,195.74,173.68,195.74,173.35Z" transform="translate(-0.45)"/><path class="cls-1" d="M206.5,173.35v-7.78a11.42,11.42,0,0,0-.13-2.1c-.08-.42-.13-.66-.13-.7s.14-.31.42-.39a2.66,2.66,0,0,1,.76-.12.46.46,0,0,1,.44.32,3.18,3.18,0,0,1,.22.68c0,.24.08.39.1.46a3.17,3.17,0,0,1,2.51-1.66,1.57,1.57,0,0,1,.94.24.77.77,0,0,1,.32.63,2.45,2.45,0,0,1-.13.78c-.09.28-.19.41-.3.41a1.58,1.58,0,0,1-.43-.12,2.15,2.15,0,0,0-.77-.12,1.66,1.66,0,0,0-.94.3,3.73,3.73,0,0,0-.75.65,2,2,0,0,0-.3.4v8.12c0,.33-.29.49-.87.49h-.09C206.79,173.84,206.5,173.68,206.5,173.35Z" transform="translate(-0.45)"/><path class="cls-1" d="M215,172.49a6.45,6.45,0,0,1-1.3-4.42,6.8,6.8,0,0,1,1.28-4.48,4.64,4.64,0,0,1,3.78-1.53,3.94,3.94,0,0,1,3.34,1.48,7,7,0,0,1,1.13,4.31,1.09,1.09,0,0,1-.26.55c-.18.24-.33.36-.46.36h-6.86a4.42,4.42,0,0,0,.93,2.71,3.16,3.16,0,0,0,2.41.86,4.92,4.92,0,0,0,1.58-.23,7.86,7.86,0,0,0,1.09-.47,2.69,2.69,0,0,1,.5-.23c.15,0,.31.15.49.44a1.52,1.52,0,0,1,.27.67c0,.18-.18.38-.54.61a5.18,5.18,0,0,1-1.44.58,7.89,7.89,0,0,1-1.92.23A5.16,5.16,0,0,1,215,172.49Zm6.29-5.33c0-2.33-.86-3.5-2.6-3.5s-2.88,1.17-3,3.5Z" transform="translate(-0.45)"/><path class="cls-1" d="M226.69,172.49a6.45,6.45,0,0,1-1.3-4.42,6.8,6.8,0,0,1,1.28-4.48,4.63,4.63,0,0,1,3.77-1.53,4,4,0,0,1,3.35,1.48,7,7,0,0,1,1.12,4.31,1,1,0,0,1-.26.55q-.26.36-.45.36h-6.86a4.42,4.42,0,0,0,.93,2.71,3.16,3.16,0,0,0,2.41.86,5,5,0,0,0,1.58-.23,7.86,7.86,0,0,0,1.09-.47,2.69,2.69,0,0,1,.5-.23c.15,0,.31.15.49.44a1.52,1.52,0,0,1,.27.67c0,.18-.18.38-.54.61a5.26,5.26,0,0,1-1.45.58,7.89,7.89,0,0,1-1.92.23A5.14,5.14,0,0,1,226.69,172.49Zm6.29-5.33q0-3.49-2.6-3.5-2.81,0-3,3.5Z" transform="translate(-0.45)"/><path class="cls-1" d="M237,173.35v-1.46c0-.33.29-.49.87-.49h.36c.58,0,.87.16.87.49v1.46c0,.33-.29.49-.87.49h-.36C237.29,173.84,237,173.68,237,173.35Z" transform="translate(-0.45)"/></g></g></svg>